<?xml version="1.0" encoding="utf-8"?>
<!-- Generator: Adobe Illustrator 16.0.0, SVG Export Plug-In . SVG Version: 6.00 Build 0)  -->
<!DOCTYPE svg PUBLIC "-//W3C//DTD SVG 1.0//EN" "http://www.w3.org/TR/2001/REC-SVG-20010904/DTD/svg10.dtd" [
	<!ENTITY ns_flows "http://ns.adobe.com/Flows/1.0/">
	<!ENTITY ns_extend "http://ns.adobe.com/Extensibility/1.0/">
	<!ENTITY ns_ai "http://ns.adobe.com/AdobeIllustrator/10.0/">
	<!ENTITY ns_graphs "http://ns.adobe.com/Graphs/1.0/">
	<!ENTITY ns_vars "http://ns.adobe.com/Variables/1.0/">
	<!ENTITY ns_imrep "http://ns.adobe.com/ImageReplacement/1.0/">
	<!ENTITY ns_sfw "http://ns.adobe.com/SaveForWeb/1.0/">
	<!ENTITY ns_custom "http://ns.adobe.com/GenericCustomNamespace/1.0/">
	<!ENTITY ns_adobe_xpath "http://ns.adobe.com/XPath/1.0/">
]>
<svg version="1.0" id="Layer_1" xmlns:x="&ns_extend;" xmlns:i="&ns_ai;" xmlns:graph="&ns_graphs;"
	 xmlns="http://www.w3.org/2000/svg" xmlns:xlink="http://www.w3.org/1999/xlink" xmlns:a="http://ns.adobe.com/AdobeSVGViewerExtensions/3.0/"
	 x="0px" y="0px" width="1400px" height="980px" viewBox="0 0 1400 980" enable-background="new 0 0 1400 980" xml:space="preserve"
	>
<metadata>
	<sfw  xmlns="&ns_sfw;">
		<slices></slices>
		<sliceSourceBounds  height="793.14" width="1201.432" y="-886.576" x="99.284" bottomLeftOrigin="true"></sliceSourceBounds>
	</sfw>
</metadata>
<path fill-rule="evenodd" clip-rule="evenodd" d="M253.192,736.384c-40.552,0.213-70.539,0.427-86.972,10.242l0,0l-0.213,0.106
	c-8.323,3.202-15.154,15.9-19.315,23.371c-3.842,6.724-11.739,22.411-20.169,23.69c-2.88,0.533-5.549-0.64-7.896-2.239
	c-3.842-2.775-6.722,1.387,3.309,5.015c14.086,5.015,22.409-10.565,29.238-23.157c-1.279,9.496-3.2,26.999-9.603,35.536
	c-7.896,10.565-24.972,22.518-26.359,24.116c-1.386,1.493-1.493,11.739-1.493,17.93c0,6.081-3.416,25.184,1.921,27.959
	c5.443,2.666,9.818,0.106,9.818,0.106c2.774,0.106,3.842-1.709,3.842-1.709c-0.106-3.309-2.243-4.269-4.483-5.228
	c-2.134-0.96-2.454-2.776-2.454-2.776c-1.814-16.54,1.068-20.701,1.068-20.701c2.88-5.121,6.402-9.069,10.244-12.592
	c3.307,8.856,15.793,28.492,20.702,29.345c5.549,1.066,6.402-1.386,6.402-1.386s4.164,0.746,4.696-1.923
	c0.533-2.665-6.083-3.198-6.083-3.198s-2.989-0.644-7.364-7.471c-4.268-6.724-3.202-11.952-3.202-11.952
	c3.629-14.834,35.962-20.918,41.725-42.366c2.456-8.856,5.976-15.047,9.178-19.103c4.908-0.533,12.058-0.106,22.729,2.989
	c24.224,7.15,37.03,17.926,56.985,15.794c2.241,19.742-3.522,46.527-4.268,50.05c-0.961,4.161,1.388,7.146,1.388,7.146
	c0.959,4.269,2.561,11.206,3.094,16.434c0.533,5.338,2.774,6.19,3.735,6.404c0.853,0.213,8.43,0.213,9.498,0
	c1.173-0.214,2.028-1.386,2.028-1.386c0.959-0.746,1.279-2.67,0-4.162c-1.281-1.39-2.776-0.533-4.59-1.39
	c-1.812-0.746-2.454-2.452-2.454-2.452c-0.213-0.533-0.32-1.283-0.533-2.029c2.347,0.106,6.722,0.106,7.577-0.106
	c1.066-0.214,1.921-1.279,1.921-1.279c0.853-0.64,1.173-2.456,0-3.842c-1.281-1.39-2.669-0.533-4.375-1.279
	c-1.601-0.75-2.243-2.35-2.243-2.35c-1.493-3.948-1.493-13.981-0.32-17.286c1.175-3.309,0.533-6.725,0.533-6.725
	c0.642-3.201,2.243-9.495,4.055-16.753c2.775-10.565,5.763-21.878,7.896-29.668c11.739-11.739,17.608-30.837,21.77-43.753
	c5.87-18.139,13.34-23.903,13.34-23.903l0,0l0,0c8.537-6.188,17.821,0.963,25.185,1.496c7.362,0.64,12.271-4.055,12.271-4.055
	s4.481-0.533,3.735-3.522c-0.642-2.988-12.38-8.643-15.793-11.845c-3.416-3.096-10.245-16.753-20.597-18.782
	c0,0-0.426-3.31-6.083-3.096c-5.656,0.319-12.485,1.815-14.192,3.628c-1.599,1.923,1.814,8.323,1.708,7.897
	c-0.106-0.214-1.495,0.213-2.774,1.066C295.237,708.105,308.896,736.064,253.192,736.384L253.192,736.384z"/>
<path fill-rule="evenodd" clip-rule="evenodd" d="M250.097,171.337c-40.55,0.213-70.643,0.427-87.078,10.245l0,0l-0.213,0.106
	c-8.217,3.309-15.045,16.007-19.314,23.371c-3.842,6.722-11.738,22.409-20.168,23.797c-2.882,0.426-5.549-0.64-7.896-2.348
	c-3.842-2.775-6.404,1.173,3.413,5.441c14.086,6.084,22.305-9.709,29.134-22.729c-1.281,9.711-3.309,26.464-9.498,34.681
	c-7.897,10.566-25.077,22.518-26.464,24.119c-1.388,1.493-1.388,11.843-1.388,17.928c0,6.083-3.416,25.29,1.921,27.959
	c5.336,2.667,9.711,0.106,9.711,0.106c2.776,0.213,3.948-1.708,3.948-1.708c-0.106-3.309-2.347-4.269-4.481-5.229
	c-2.134-0.96-2.456-2.774-2.456-2.774c-1.813-16.542,1.068-20.704,1.068-20.704c2.774-5.015,6.296-9.069,10.244-12.591
	c3.309,8.856,15.687,28.598,20.595,29.453c5.549,0.959,6.511-1.388,6.511-1.388s4.162,0.64,4.695-2.027
	c0.426-2.561-6.083-3.2-6.083-3.2s-3.094-0.642-7.364-7.364c-4.375-6.831-3.2-12.059-3.2-12.059
	c3.628-14.728,35.855-20.917,41.725-42.258c2.454-8.965,5.87-15.047,9.176-19.209c4.803-0.533,12.059-0.107,22.731,2.987
	c24.224,7.15,36.922,17.93,56.984,15.794c2.241,19.742-3.521,46.528-4.375,50.157c-0.853,4.055,1.495,7.042,1.495,7.042
	c0.959,4.268,2.454,11.206,3.095,16.542c0.533,5.228,2.774,6.081,3.627,6.296c0.961,0.213,8.432,0.213,9.604,0
	c1.068-0.215,2.027-1.388,2.027-1.388c0.961-0.64,1.281-2.669,0-4.055c-1.388-1.495-2.774-0.64-4.588-1.388
	c-1.814-0.853-2.454-2.561-2.454-2.561c-0.213-0.533-0.428-1.175-0.535-1.921c2.348,0,6.724,0,7.471-0.213
	c1.068-0.213,1.921-1.281,1.921-1.281c0.959-0.64,1.281-2.454,0-3.842c-1.173-1.279-2.561-0.533-4.269-1.279
	c-1.708-0.642-2.241-2.349-2.241-2.349c-1.494-3.949-1.601-13.979-0.428-17.287c1.175-3.309,0.642-6.724,0.642-6.724
	c0.64-3.2,2.134-9.39,4.055-16.646c2.773-10.564,5.763-21.983,7.896-29.773c11.632-11.738,17.501-30.839,21.77-43.752
	c1.601-5.014,3.309-9.071,4.908-12.271c2.456-3.735,5.336-7.897,8.323-11.525l0.107-0.107h-0.107
	c2.776-3.413,5.55-6.189,8.003-7.684c9.072-5.549,19.849-0.106,24.545-1.066c4.801-1.068,4.588-4.697,4.588-4.697
	c0.427-0.426,0.32-1.066,0.32-1.066s2.134,0.213,6.831-0.747c4.694-0.961,4.481-4.27-0.428-3.415
	c-4.908,0.853-6.723,1.386-14.726-1.495c-7.896-2.774-15.58-0.426-15.58-0.426c2.989-5.229,18.141-7.897,22.089-9.071
	c4.055-1.066,4.375-4.162,4.375-4.162c2.242-1.708,1.601-4.161,1.494-6.082c0-1.814-4.588-0.853-4.588-0.853
	c-1.921-0.428-4.588,0.106-10.671,1.172c-5.976,1.175-7.47,0.749-15.474-0.746c-8.003-1.494-18.248,1.068-22.409,5.336
	c-4.164,4.162-13.66,7.468-13.66,7.468c-6.831,2.348-5.123,8.752-3.416,12.38C294.704,153.836,293.743,171.124,250.097,171.337
	L250.097,171.337z"/>
<path fill-rule="evenodd" clip-rule="evenodd" d="M1153.425,733.608c50.579,0.319,83.023,0.64,90.383,25.933
	c0.644,2.025,1.07,3.949,1.39,5.761l0,0c1.387,5.872,2.239,30.415,9.496,40.978c7.15,10.565,22.731,22.518,24.011,24.01
	c1.173,1.604,1.279,11.846,1.279,18.036c0,6.081,3.096,25.184-1.813,27.959c-4.802,2.669-8.75,0.106-8.75,0.106
	c-2.563,0.107-3.628-1.705-3.628-1.705c0.106-3.416,2.132-4.272,4.055-5.232c2.025-0.959,2.35-2.775,2.35-2.775
	c1.599-16.646-1.07-20.809-1.07-20.809c-8.536-16.966-24.437-22.514-36.815-34.892c-7.044-7.044-13.764-16.224-18.355-22.944
	c4.055,26.143,27.318,39.91,26.572,45.031c-0.853,6.085-16.434,30.202-21.447,30.734c-5.125,0.533-5.765-1.815-5.765-1.815
	s-3.842,0.319-4.162-2.346c-0.213-2.669,5.658-2.669,5.658-2.669s2.879-0.533,7.253-6.938c4.272-6.4,3.629-11.738,3.629-11.738
	c-2.025-13.445-25.183-21.555-32.866-38.628c-4.269,4.588-9.177,7.04-15.475,4.588c-9.069-3.628-6.507-7.79-2.985-5.015
	c2.133,1.706,4.482,2.772,7.147,2.346c3.309-0.64,6.511-3.842,9.393-7.896c-0.106-0.213-0.106-0.427-0.213-0.64
	c-1.177-7.044-3.096-12.378-5.125-16.434c-1.919,0.427-4.055,0.96-6.188,1.706c-20.274,6.511-31.693,16.113-47.487,16.007
	c-2.775,18.676,5.015,48.664,5.975,52.289c0.963,3.735-0.854,6.617-0.854,6.617c-0.533,4.056-1.492,10.565-1.599,15.581
	c-0.214,4.907-2.029,7.896-2.776,8.216c-0.746,0.32-6.511,0.533-7.47,0.427c-0.96-0.213-1.813-1.173-1.813-1.173
	c-0.856-0.64-1.283-2.349-0.214-3.842c1.6-2.242,3.949-1.706,5.121-5.978c1.066-4.055,0.533-14.084-0.746-17.393
	c-1.283-3.203-0.959-6.618-0.959-6.618c-1.816-7.573-9.287-33.08-14.088-49.087c-1.066-0.319-2.137-0.533-3.202-0.959
	c0.853,3.415,1.283,5.654,1.283,5.654c-9.073,16.007-10.779,49.41-10.993,53.358c-0.106,3.842-2.775,5.974-2.775,5.974
	c-1.706,3.629-4.481,9.5-6.084,14.088c-1.706,4.589-3.625,4.802-4.481,4.802c-0.747,0-6.934,0.214-7.791-0.319
	c-0.853-0.427-1.279-1.71-1.279-1.71c-0.64-0.853-0.532-2.665,0.854-3.735c2.242-1.492,4.269-0.106,6.617-3.842
	c2.242-3.411,4.694-13.125,4.481-16.54c-0.213-3.521,1.066-6.72,1.066-6.72c0.644-9.287,3.202-44.18,1.709-64.672
	c-4.801-7.786-6.83-17.499-8.109-26.781c-3.202-21.666-12.592-33.191-12.698-33.404c-1.177-0.64-2.243-1.173-3.309-1.279
	c-9.287-1.173-18.25,5.121-22.411,6.191c-4.162,1.066-5.335-2.243-5.335-2.243c-0.533-0.213-0.746-0.853-0.746-0.853
	s-1.603,1.066-5.658,2.238c-4.055,1.07-5.228-2.025-0.959-3.305c11.312-3.309,18.569-10.886,24.437-11.419
	c-4.269-3.309-15.474,0.64-19.103,1.386c-3.629,0.641-8.003-4.801-8.003-4.801c-2.239-0.533-6.188-5.765,0-7.363
	c1.39-1.173,3.628-1.813,8.859-3.309c5.229-1.493,6.294-2.453,12.059-7.045c5.867-4.694,15.044-6.613,19.955-4.588
	c4.908,1.923,13.658,0.96,13.658,0.96c5.015-0.64,6.724,3.202,7.15,6.724C1114.687,706.822,1104.228,733.395,1153.425,733.608
	L1153.425,733.608z"/>
<path fill-rule="evenodd" clip-rule="evenodd" d="M910.332,398.316c0,0-4.912-8.643-12.911-4.481
	c-7.897,4.055-15.794,13.338-21.025,14.086c-5.334,0.746,7.15,8.643,16.859-1.388c0,0,3.949,5.336,9.073,7.044
	c0,0,0.107,0.426,0.214,1.173c-5.658,18.356,0.64,41.725-38.312,41.938c-50.579,0.32-83.023,0.535-90.388,25.932
	c-0.532,2.027-1.065,3.948-1.386,5.763l0,0c-1.279,5.763-2.238,30.306-9.496,40.872c-7.15,10.565-22.624,22.624-23.903,24.117
	c-1.283,1.492-1.39,11.845-1.39,17.926c0,6.084-3.092,25.293,1.815,27.958c4.802,2.776,8.856,0.107,8.856,0.107
	c2.456,0.213,3.522-1.706,3.522-1.706c-0.106-3.309-2.136-4.269-4.055-5.229c-1.92-0.963-2.243-2.775-2.243-2.775
	c-1.706-16.54,0.963-20.701,0.963-20.701c8.644-16.967,24.544-22.518,36.922-34.896c6.938-7.044,13.765-16.326,18.246-22.944
	c-3.948,26.146-27.315,39.805-26.569,45.036c0.96,6.08,16.434,30.091,21.555,30.73c5.125,0.533,5.765-1.919,5.765-1.919
	s3.842,0.427,4.055-2.243c0.32-2.665-5.657-2.771-5.657-2.771s-2.879-0.43-7.147-6.831c-4.378-6.511-3.735-11.845-3.735-11.845
	c2.026-13.338,25.184-21.559,32.974-38.632c4.162,4.695,9.177,7.151,15.367,4.695c9.177-3.629,6.508-7.79,2.985-5.015
	c-2.025,1.6-4.481,2.775-7.146,2.242c-3.309-0.533-6.511-3.734-9.287-7.79c0-0.213,0-0.427,0.106-0.64
	c1.283-7.044,3.202-12.488,5.231-16.544c1.92,0.427,3.949,1.07,6.188,1.816c20.169,6.507,31.588,16.113,47.381,16.007
	c2.776,18.676-5.014,48.554-5.974,52.183c-0.963,3.735,0.853,6.724,0.853,6.724c0.64,4.056,1.493,10.563,1.706,15.475
	c0.106,4.907,1.923,8.003,2.669,8.323c0.854,0.213,6.511,0.532,7.471,0.319c0.959-0.106,1.813-1.177,1.813-1.177
	c0.853-0.532,1.279-2.345,0.213-3.731c-1.599-2.349-3.842-1.709-5.121-5.978c-1.066-4.055-0.533-14.194,0.746-17.393
	c1.279-3.202,0.96-6.725,0.96-6.725c1.816-7.47,9.393-32.973,14.088-49.087c1.173-0.213,2.238-0.536,3.202-0.856
	c-0.854,3.309-1.283,5.552-1.283,5.552c9.18,16.113,10.779,49.513,10.992,53.354c0.106,3.949,2.775,6.085,2.775,6.085
	c1.706,3.629,4.481,9.39,6.188,13.978c1.604,4.694,3.522,4.908,4.379,4.801c0.853,0,6.934,0.214,7.786-0.213
	c0.856-0.533,1.283-1.813,1.283-1.813c0.64-0.853,0.533-2.669-0.853-3.628c-2.243-1.6-4.162-0.214-6.618-3.842
	c-2.242-3.416-4.694-13.125-4.481-16.647c0.214-3.521-1.065-6.617-1.065-6.617c-0.537-9.282-3.202-44.179-1.604-64.773
	c4.802-7.791,6.725-17.395,8.11-26.786c2.563-17.606,0.64-35.749-0.213-42.258c5.44-8.323,7.79-19.101,7.79-19.101
	c5.121-1.708,9.176-7.044,9.176-7.044c9.606,10.031,22.092,2.134,16.864,1.388c-5.339-0.749-13.129-10.031-21.132-14.086
	c-8.004-4.162-12.806,4.481-12.806,4.481S921.214,394.794,910.332,398.316L910.332,398.316z"/>
<path fill-rule="evenodd" clip-rule="evenodd" d="M1082.673,434.278c8.75,2.667,25.716,6.189,42.899,1.921
	c24.65-6.083,64.561-32.762,101.056-5.763c3.735,2.775,6.618,5.656,8.856,8.643c4.698,5.656,29.349,33.402,64.885,34.896
	c0,0,1.492,1.814-1.71,2.134c-2.882,0.32-29.771,3.735-57.196-20.382c0.746,16.327-12.166,31.694-25.934,34.894
	c2.136,3.842,4.269,7.684,5.019,8.856c1.599,2.35-18.036,10.459-33.084,12.809c-1.386,2.985-2.665,5.867-3.629,8.537
	c0.747,0.106,1.604,0.106,2.35,0.213c0,0,5.441,1.706,4.908,5.974c-0.64,4.269-2.883,5.978-6.511,4.269
	c-1.279-0.64-2.666-1.386-4.481-2.133c-2.985,1.706-14.725,4.695-19.206,6.081c-1.283,0.427-3.202,1.07-5.551,1.816
	c1.386,3.202,2.456,5.44,2.882,6.188c1.493,3.095,0.214,5.978,0.214,5.978c0,3.629-1.066,12.059-0.533,16.434
	s-1.066,5.44-1.71,5.867c-0.746,0.323-8.856,3.096-9.815,3.096c-0.854,0.106-1.813-0.64-1.813-0.64
	c-0.964-0.427-1.604-1.919-0.856-3.309c0.856-1.493,4.161-2.346,5.444-3.31c1.386-0.959,1.492-2.559,1.492-2.559
	c0.533-3.734-0.319-15.047-2.029-17.609c-1.705-2.666-1.919-5.761-1.919-5.761c-0.213-0.533-0.427-1.066-0.746-1.71
	c-4.588,1.07-8.75,1.39-10.246-0.213c-3.629-3.735-3.842-6.827-3.842-6.827c-0.853-2.242,0.427-3.629,0.427-3.629
	c2.775-0.746,7.15,0.96,8.54,2.452c0.533,0.644,1.173,0.964,1.706,1.177c-11.206-21.665-26.68-39.271-26.68-39.271l0.106-0.107
	c-19.205-12.058-16.007-16.861-29.771-23.69c-0.213,0.213-0.319,0.427-0.532,0.64c-3.522-2.88-10.033-4.695-14.941-6.509
	c-26.572-9.604-25.93-9.285-45.352-6.831c-4.698,0.535-5.444-3.414-5.444-3.414c-0.427-0.213-0.64-0.961-0.64-0.961
	s-1.919,0.748-6.618,0.961c-4.694,0.32-5.334-2.989-0.426-3.415c4.911-0.32,6.83-0.213,13.661-4.802
	c6.934-4.59,14.83-4.27,14.83-4.27c-4.055-4.268-19.205-3.2-23.366-3.307c-4.056-0.106-5.125-2.988-5.125-2.988
	c-2.559-1.066-2.559-3.522-2.879-5.335c-0.43-1.814,4.162-2.027,4.162-2.027c1.812-0.854,4.481-0.961,10.455-1.388
	c5.978-0.32,7.364-1.068,14.621-4.481c7.257-3.416,17.713-3.416,22.73-0.428c5.015,3.095,14.831,3.842,14.831,3.842
	C1082.353,425.422,1083.1,430.437,1082.673,434.278L1082.673,434.278z M1144.888,502.681c3.412,4.375,7.79,8.856,13.338,13.019
	c0,0,4.481,1.603,13.338,3.201c1.177-1.812,2.029-3.842,2.669-5.974c-8.643-0.106-9.496-0.96-10.779-1.39
	c-1.492-0.533-2.559-9.39,4.162-9.496c3.096-0.106,5.338,0.746,8.753,1.173c1.493-10.882,1.28-23.049,5.229-31.372
	c-1.177-3.522-0.854-6.723-0.854-6.723s-8.646,0.853-10.032,12.165c-0.96,7.469-10.992,20.275-25.93,23.051
	C1144.781,501.082,1144.888,501.828,1144.888,502.681L1144.888,502.681z M1162.281,526.371c-3.842-0.746-8.644-3.521-13.662-7.257
	c1.283,4.055,2.669,7.896,3.948,11.313C1156.303,529.146,1159.611,527.758,1162.281,526.371L1162.281,526.371z M1205.606,492.438
	c-4.481,2.025-8.963,4.694-11.845,8.644c-0.32,0.426-0.64,0.853-0.96,1.279c1.493-0.214,2.985-0.533,4.695-0.96
	C1197.497,501.401,1208.485,499.372,1205.606,492.438L1205.606,492.438z"/>
<path fill-rule="evenodd" clip-rule="evenodd" d="M318.606,441c-0.64,0.215-1.279,0.322-1.919,0.535
	c-9.285,2.134-25.185,4.481-40.979,0c-24.437-7.044-63.495-35.003-100.845-9.285c-3.733,2.561-6.722,5.442-9.07,8.323
	c-4.91,5.549-30.519,32.442-66.162,32.655c0,0-1.495,1.813,1.708,2.241c2.881,0.426,29.665,4.801,57.839-18.354
	c-1.175,16.113,10.99,31.907,24.65,35.642c-2.774,4.695-7.257,12.059-8.43,13.765c-1.921,2.669,23.797,13.875,38.95,14.728
	c0.961,0,1.814,0.106,2.669,0.106l0.746,2.346c-1.708,0.214-3.628,0.323-5.549,0.537c0,0-5.55,1.386-5.121,5.761
	c0.533,4.269,2.667,6.084,6.402,4.481c2.987-1.386,6.829-3.309,14.299-3.842c4.055,1.283,8.43,2.669,10.777,3.521
	c1.814,0.533,5.23,1.923,8.965,3.202c-0.64,1.173-1.068,2.026-1.281,2.456c-1.599,3.092-0.426,5.975-0.426,5.975
	c-0.106,3.628,0.64,12.165,0,16.54c-0.746,4.268,0.853,5.44,1.495,5.871c0.64,0.319,8.643,3.415,9.604,3.415
	c0.959,0.103,1.921-0.644,1.921-0.644c0.959-0.319,1.708-1.813,0.959-3.305c-0.747-1.39-4.162-2.456-5.336-3.416
	c-1.279-1.069-1.386-2.563-1.386-2.563c-0.427-3.734,0.853-15.047,2.561-17.605c1.068-1.39,1.601-2.989,1.814-4.162
	c2.774,0.427,5.015,0.32,6.083-0.75c3.735-3.521,4.055-6.72,4.055-6.72c0.853-2.137-0.32-3.629-0.32-3.629
	c-1.281-0.427-2.989-0.213-4.59,0.213c7.257-12.805,15.9-24.01,21.556-30.734c18.569-10.99,15.794-15.9,29.667-22.196
	c0.213,0.32,0.32,0.533,0.533,0.747c3.628-2.774,10.246-4.375,15.154-5.976c26.786-8.75,26.145-8.43,45.46-5.334
	c4.801,0.746,5.549-3.202,5.549-3.202c0.533-0.213,0.746-0.959,0.746-0.959c-0.106-0.961-0.746-1.281-0.746-1.281
	s1.386-1.281-0.426-1.814c-1.816-0.533-11.845-4.908-15.474-6.189c-3.628-1.281-4.375-2.987-4.375-2.987
	c4.162-4.057,19.313-2.456,23.475-2.456c4.055,0,5.23-2.774,5.23-2.774c2.561-1.068,2.667-3.522,3.095-5.336
	c0.426-1.708-4.164-2.134-4.164-2.134c-1.708-0.853-4.375-1.175-10.351-1.708c-6.083-0.64-7.364-1.386-14.513-5.015
	c-6.937-3.522-16.861-3.949-22.196-1.388c0,0-13.34,4.055-25.185,5.017c-9.178,0.746-2.987,6.296,4.055,7.255
	C319.461,440.787,319.034,440.894,318.606,441L318.606,441z M255.753,505.137c-3.735,5.015-8.75,10.029-15.474,14.617
	c0,0-2.88,0.963-8.643,2.029c-0.32-0.213-0.533-0.32-0.533-0.32c-0.107-0.213-0.215-0.319-0.322-0.532
	c0.535-0.106,0.855-0.214,1.281-0.427c1.601-0.533,2.882-9.287-3.842-9.606c-0.853-0.106-1.601,0-2.454,0
	c-3.522-12.911-1.066-29.878-5.763-40.87l-0.426-0.853c0-0.428,0-0.642,0-0.642s8.537,1.068,9.604,12.487
	C229.928,488.701,240.066,502.361,255.753,505.137L255.753,505.137z M242.733,527.864c3.949-2.026,8.325-5.015,12.7-8.323
	c-1.601,4.161-3.309,8.109-4.803,11.312C247.75,530,245.189,528.934,242.733,527.864L242.733,527.864z M193.859,493.291
	c1.601-0.319,3.309-0.853,4.908-1.709c3.202,1.923,6.084,4.268,8.11,7.257c2.456,3.629,4.697,8.536,6.618,13.128
	c-3.629-0.217-8.43-0.963-15.047-2.669c0,0-13.125-2.882-6.509-11.418C193.433,495.961,193.966,494.464,193.859,493.291
	L193.859,493.291z"/>
<path fill-rule="evenodd" clip-rule="evenodd" d="M800.096,155.224c0,0-12.911,21.343-16.326,23.478
	c-3.522,2.134-7.684,1.601-7.684,1.601s-2.669,2.561-4.375,2.561s-5.548,0.32-3.202-8.75c2.456-9.071,4.055-18.783,2.669-24.117
	c-1.386-5.443,2.775-16.755,6.507-21.665c0,0-3.092-8.643,6.404-8.963c0,0,3.735-6.296,14.515-4.588
	c10.882,1.708,15.367,2.028,12.698,5.122c-2.669,3.202-7.15,4.161-6.617,5.016c0.533,0.959,16.22,1.921,26.039,19.314
	c9.71,17.395,12.165,28.494,34.04,44.607c21.878,16.114,50.902,51.969,39.591,94.654c0,0-2.239,6.938-7.577,12.487l2.349,0.213
	c7.684,0.64,25.077,2.987,30.948-3.096c2.025-2.134,2.665-5.015,2.559-7.897c0-4.695,4.698-4.588,2.563,5.87
	c-3.735,18.889-30.628,10.565-45.568,10.031c0.536,0.855,2.349,4.162-0.96,6.724c-3.842,2.88-35.749-1.175-47.381,2.347
	c0,0-5.974-0.32,0-6.511c0,0-6.934-1.173-9.709-0.533c-2.883,0.64-1.816-7.148,8.749-6.722c10.673,0.427,22.625,0.213,23.478-2.454
	c0.854-2.669-32.973-18.249-18.995-37.243c0,0-2.666-5.443-5.335-4.162c0,0-10.565,33.721-12.378,40.55c0,0-1.173-0.106-3.735,4.483
	c-2.669,4.481-4.695,9.176-5.548,11.523c-0.856,2.454-2.989,3.842-3.735,3.948c-0.75,0-10.779,0-10.779,0s-0.959-2.347,0.64-3.413
	c0,0-0.106-3.416,5.654-5.55c5.765-2.134,14.728-31.48,16.544-61.36c0,0-0.644-0.32-1.709-0.959
	c-5.229,6.722-17.18,22.196-18.89,24.97c-2.239,3.628-0.96,8.856-0.96,15.474c0,6.509,2.67,8.963,2.137,13.659
	c-0.533,4.802-3.309,6.723-5.871,6.189c-2.452-0.533-2.452-2.241-2.452-8.003c0-5.87-0.644-15.047-1.816-20.704
	c-1.279-5.656,2.242-10.351,2.242-10.351c4.908-8.75,11.206-22.196,14.938-30.093c-5.975-6.189-11.846-14.939-12.059-25.825
	C801.162,184.89,811.195,175.925,800.096,155.224L800.096,155.224z"/>
<path fill-rule="evenodd" clip-rule="evenodd" d="M834.992,717.388l0.106,0.32c9.816,17.393,12.165,28.491,34.04,44.605
	c21.984,16.113,51.009,51.969,39.591,94.762c0,0-2.239,6.831-7.577,12.378l2.349,0.214c7.791,0.64,25.077,2.989,31.055-3.092
	c2.025-2.136,2.559-5.019,2.559-7.897c-0.106-4.698,4.592-4.592,2.563,5.868c-3.735,18.889-30.734,10.565-45.564,10.028
	c0.532,0.857,2.345,4.166-1.07,6.725c-3.842,2.883-35.749-1.173-47.377,2.35c0,0-5.871-0.32,0-6.512c0,0-6.831-1.172-9.713-0.533
	c-2.776,0.641-1.813-7.15,8.856-6.724c10.565,0.427,22.624,0.214,23.477-2.452c0.854-2.669-32.973-18.249-18.995-37.245
	c0,0-2.772-5.44-5.335-4.161c0,0-10.565,33.723-12.484,40.554c0,0-1.173-0.11-3.735,4.481c-2.563,4.481-4.695,9.176-5.548,11.525
	c-0.856,2.452-2.989,3.838-3.629,3.948c-0.746,0.103-10.779,0-10.779,0s-0.959-2.349,0.533-3.415c0,0-0.106-3.416,5.765-5.552
	c5.761-2.132,14.617-31.48,16.54-61.252c0,0-0.64-0.427-1.709-1.065c-5.229,6.72-17.18,22.193-18.992,25.076
	c-2.243,3.629-0.856,8.75-0.856,15.367c0,6.507,2.562,8.963,2.029,13.657c-0.533,4.802-3.31,6.725-5.765,6.191
	c-2.559-0.533-2.559-2.243-2.559-8.004c0-5.871-0.64-15.047-1.816-20.701c-1.173-5.658,2.242-10.353,2.242-10.353
	c4.908-8.75,11.313-22.198,14.941-30.095c-5.871-6.188-11.739-14.938-12.059-25.823c-0.217-8.536,1.173-15.154,2.346-21.128
	c0-25.613-5.335-37.032-16.54-47.062c-5.654-5.014-14.195-5.014-18.356-8.003c-3.948-2.882-2.239-5.978-2.239-5.978
	c-0.213-0.533,0.106-1.173,0.106-1.173s-2.029-0.64-5.871-3.415c-3.734-2.67-2.238-5.548,1.816-2.883
	c4.055,2.669,5.548,3.948,13.765,4.592c8.217,0.64,14.194,5.867,14.194,5.867c-0.533-5.867-13.125-14.407-16.221-16.966
	c-3.202-2.669-2.242-5.552-2.242-5.552c-1.279-2.452,0.213-4.375,1.07-6.081c0.746-1.603,4.481,1.066,4.481,1.066
	c1.919,0.427,4.055,1.923,9.069,5.335c4.908,3.415,6.404,3.628,14.19,5.551c7.044,1.6,14.408,6.938,17.29,11.952l0,0
	c0,0,5.548,8.11,11.525,12.698C837.874,711.947,836.592,715.146,834.992,717.388L834.992,717.388z"/>
<path fill-rule="evenodd" clip-rule="evenodd" d="M569.702,175.286c-4.694,8.003-10.884,15.581-23.369,24.756
	c-21.983,16.116-51.01,51.971-39.591,94.762c0,0,1.708,5.23,5.656,10.244l0,0c-7.684,0.642-25.505,5.443-31.481-0.746
	c-2.027-2.134-2.561-4.91-2.561-7.791c0.107-4.803-4.59-4.696-2.561,5.763c3.733,18.994,30.732,10.564,45.565,10.138
	c-0.426,0.747-2.347,4.162,1.068,6.616c3.842,2.989,35.749-1.173,47.381,2.456c0,0,5.869-0.321,0-6.617c0,0,6.829-1.173,9.711-0.426
	c2.774,0.64,1.813-7.151-8.858-6.831c-10.564,0.428-22.623,0.215-23.477-2.348c-0.853-2.667,32.975-18.354,18.996-37.35
	c0,0,2.774-5.441,5.336-4.162c0,0,10.564,33.722,12.485,40.659c0,0,1.173-0.213,3.735,4.375c2.561,4.588,4.695,9.285,5.547,11.632
	c0.855,2.348,2.989,3.842,3.629,3.842c0.748,0.106,10.779,0,10.779,0s1.066-2.241-0.535-3.309c0,0,0.106-3.52-5.656-5.656
	c-5.868-2.134-14.726-31.481-16.646-61.252c0,0,0.64-0.32,1.708-1.068c5.229,6.722,17.182,22.196,18.994,25.079
	c2.243,3.628,0.854,8.75,0.854,15.365c0,6.618-2.561,8.965-2.027,13.766c0.533,4.696,3.309,6.724,5.763,6.189
	c2.561-0.533,2.561-2.241,2.561-8.11c0-5.763,0.64-15.045,1.814-20.702c1.174-5.656-2.241-10.244-2.241-10.244
	c-4.908-8.858-11.313-22.303-14.941-30.2c5.869-6.189,11.739-14.94,12.059-25.824c0.213-10.031-1.706-17.395-2.88-24.437
	c0,0,2.454-15.474,3.093-16.329c0.642-0.746,5.55-0.853,5.55-0.853s-2.774-9.604-0.853-22.516
	c1.814-12.913,5.443-27.532,5.443-27.532s2.774-9.284,2.454-10.992c-0.32-1.814-2.88-2.241-3.735-1.708
	c-0.746,0.642-4.268,5.869-3.842,3.842c0,0,1.601-6.296,1.388-8.963c-0.106-2.669-5.016-5.442-7.044-5.549
	c-2.134-0.106-8.536,16.54-13.338,21.77c-4.91,5.229-9.924,5.976-12.058,12.058c-2.136,5.976-8.858,16.753-14.408,23.478
	c-5.548,6.722,4.268,2.88,5.869,1.921c0,0-1.388,7.684-4.908,11.417C569.702,174.326,569.595,174.752,569.702,175.286
	L569.702,175.286z"/>
<path fill-rule="evenodd" clip-rule="evenodd" d="M1167.295,233.23c2.03,4.055,3.949,9.392,5.125,16.436
	c0.104,0.213,0.104,0.426,0.214,0.64c-2.883,4.055-6.085,7.255-9.394,7.896c-2.665,0.427-5.015-0.641-7.15-2.349
	c-3.522-2.774-6.081,1.495,2.989,5.017c6.297,2.454,11.205,0,15.474-4.588c7.684,17.073,30.841,25.292,32.866,38.63
	c0,0,0.64,5.336-3.628,11.738c-4.375,6.402-7.254,6.938-7.254,6.938s-5.871,0-5.658,2.667c0.32,2.667,4.162,2.348,4.162,2.348
	s0.64,2.454,5.765,1.814c5.015-0.533,20.595-24.652,21.447-30.732c0.747-5.123-22.518-18.889-26.572-45.034
	c4.592,6.722,11.313,16.007,18.356,22.942c12.378,12.38,28.278,17.928,36.814,34.896c0,0,2.669,4.269,1.066,20.808
	c0,0-0.319,1.814-2.346,2.776c-1.923,0.959-3.948,1.814-4.055,5.228c0,0,1.066,1.814,3.629,1.708c0,0,3.948,2.561,8.749-0.107
	c4.908-2.773,1.813-21.876,1.813-27.958c0-6.189-0.106-16.433-1.279-18.035c-1.279-1.494-16.859-13.446-24.01-24.01
	c-7.258-10.564-8.11-35.109-9.496-40.977l0,0c-0.32-1.814-0.747-3.735-1.39-5.763c-7.364-25.292-39.805-25.612-90.384-25.825
	c-24.761-0.213-31.268-9.711-34.15-21.343c0.32-0.426,0.214-0.855-0.319-1.495c-0.96-4.588-1.6-9.496-2.563-14.192
	c0-0.32,0-0.64,0-0.64c1.603,0.959,11.419,4.801,5.871-1.921c-5.551-6.724-12.271-17.395-14.407-23.478
	c-2.133-6.082-7.151-6.722-12.059-12.058c-4.802-5.23-11.206-21.876-13.338-21.77c-2.029,0.107-6.938,2.881-7.044,5.55
	c-0.214,2.667,1.386,8.963,1.386,8.963c0.427,2.027-3.092-3.2-3.842-3.842c-0.853-0.533-3.411-0.106-3.731,1.708
	c-0.323,1.708,2.452,10.993,2.452,10.993s3.629,14.619,5.444,27.53c1.919,13.02-0.856,22.518-0.856,22.518s4.806,0.107,5.552,0.853
	c0.426,0.642,2.025,10.138,2.771,14.408c-0.319,7.79-0.213,17.18,1.177,26.464c1.279,9.285,3.305,18.994,8.11,26.784
	c1.492,20.488-1.07,55.384-1.71,64.669c0,0-1.279,3.2-1.066,6.722c0.214,3.415-2.242,13.233-4.481,16.646
	c-2.349,3.628-4.375,2.243-6.617,3.735c-1.386,1.068-1.492,2.883-0.853,3.735c0,0,0.426,1.281,1.279,1.708
	c0.856,0.533,7.044,0.319,7.79,0.319c0.853,0,2.775-0.213,4.481-4.801c1.603-4.59,4.379-10.458,6.084-14.086
	c0,0,2.669-2.027,2.776-5.976c0.213-3.948,1.919-37.35,10.988-53.356c0,0-0.427-2.241-1.279-5.55
	c1.066,0.32,2.136,0.535,3.202,0.855c4.801,16.007,12.271,41.616,14.084,49.086c0,0-0.319,3.416,0.963,6.725
	c1.28,3.2,1.813,13.231,0.747,17.286c-1.173,4.268-3.522,3.735-5.121,5.976c-1.07,1.495-0.644,3.202,0.213,3.842
	c0,0,0.853,0.962,1.813,1.175c0.959,0.106,6.724-0.106,7.471-0.426c0.746-0.213,2.562-3.309,2.775-8.217
	c0.106-5.017,1.066-11.419,1.599-15.581c0,0,1.813-2.882,0.854-6.617c-0.96-3.629-8.75-33.507-5.975-52.289
	c15.794,0.213,27.213-9.498,47.488-16.007C1163.24,234.192,1165.376,233.657,1167.295,233.23L1167.295,233.23z"/>
<path fill-rule="evenodd" clip-rule="evenodd" d="M613.028,682.278c0,0-1.599-9.815-10.458-8.643
	c-8.965,1.173-19.529,7.257-24.756,6.084c-5.123-1.069,3.84,10.669,16.327,4.481c0,0,2.027,6.294,6.189,9.709
	c0,0-0.533,3.629-0.426,8.644c-4.375,17.823-0.748,38.738-37.563,38.951c-48.449,0.214-80.356,0.533-89.319,22.838
	c-2.348,3.842-4.269,7.79-5.87,10.886c-3.522,6.721-10.67,22.407-18.354,23.797c-2.561,0.427-5.017-0.644-7.151-2.35
	c-3.414-2.775-6.083,1.387,3.096,5.015c11.525,4.481,18.781-7.684,24.65-19.422c-1.173,9.927-3.2,24.33-8.217,31.801
	c-7.257,10.565-22.729,22.518-24.01,24.116c-1.281,1.497-1.281,11.739-1.281,17.93c0,6.081-3.093,25.184,1.708,27.959
	c4.91,2.67,8.858,0.107,8.858,0.107c2.561,0.213,3.52-1.71,3.52-1.71c-0.106-3.306-2.134-4.269-4.055-5.228
	c-1.919-0.96-2.241-2.775-2.241-2.775c-1.708-16.541,0.961-20.702,0.961-20.702c8.643-16.967,24.543-22.621,36.921-34.999
	c6.938-6.938,13.766-16.224,18.356-22.838c-4.055,26.036-27.426,39.805-26.68,45.032c0.961,5.978,16.434,30.095,21.557,30.628
	c5.123,0.64,5.763-1.816,5.763-1.816s3.842,0.427,4.055-2.239c0.32-2.669-5.656-2.775-5.656-2.775s-2.774-0.533-7.149-6.938
	c-4.376-6.4-3.735-11.738-3.735-11.738c2.347-14.938,31.159-23.478,35-45.245c1.281-6.938,3.202-12.379,5.23-16.434
	c1.921,0.427,3.948,1.066,6.189,1.706c20.168,6.511,31.587,16.22,47.381,16.113c2.774,18.677-4.91,48.558-5.869,52.183
	c-1.068,3.735,0.746,6.725,0.746,6.725c0.64,4.055,1.495,10.565,1.708,15.473c0.213,4.908,2.027,8.004,2.773,8.324
	c0.749,0.213,6.511,0.533,7.471,0.319c0.853-0.106,1.708-1.173,1.708-1.173c0.853-0.533,1.281-2.349,0.213-3.842
	c-1.601-2.242-3.842-1.599-5.017-5.978c-1.173-4.055-0.64-14.084,0.642-17.286s0.959-6.725,0.959-6.725
	c1.921-7.47,9.392-33.08,14.086-49.086c1.175-0.214,2.243-0.533,3.202-0.854c-0.746,3.309-1.174,5.548-1.174,5.548
	c9.071,16.113,10.672,49.517,10.886,53.358c0.213,3.949,2.773,6.081,2.773,6.081c1.708,3.628,4.482,9.394,6.189,13.981
	c1.601,4.588,3.628,4.801,4.376,4.801c0.853,0,6.936,0.214,7.791-0.319c0.853-0.427,1.386-1.71,1.386-1.71
	c0.64-0.853,0.427-2.665-0.959-3.629c-2.243-1.599-4.162-0.213-6.617-3.842c-2.241-3.411-4.695-13.124-4.482-16.646
	c0.213-3.521-1.066-6.613-1.066-6.613c-0.535-9.393-3.202-44.285-1.601-64.777c4.801-7.791,6.722-17.5,8.11-26.783
	c3.201-21.771-0.533-44.608-0.533-44.608v-0.853c3.626-4.162,5.869-7.684,5.869-7.684c5.334,0.106,10.884-3.522,10.884-3.522
	c5.656,12.702,20.062,9.606,15.367,7.044c-4.696-2.452-8.858-13.871-14.94-20.488c-6.189-6.511-13.66-0.106-13.66-0.106
	S624.447,682.599,613.028,682.278L613.028,682.278z"/>
<path fill-rule="evenodd" clip-rule="evenodd" d="M533.846,427.449c0,0,1.923,10.777-0.106,18.354
	c-2.132,7.47-11.952,27.532-12.698,50.37c-0.746,22.834,3.309,17.073,0.746,33.293c-2.561,16.22,4.055,31.268-1.813,57.73
	c0,0-1.068,6.084-4.483,8.966c-3.307,2.879-5.55,8.964-2.667,10.775c2.774,1.923,5.336,0,5.336,0s6.722,4.269,10.031-2.238
	c3.416-6.511,2.774-9.819,3.416-12.592c0.64-2.775-0.961-14.728-1.281-33.297c-0.213-18.565,2.774-42.149,6.936-49.939
	c0,0,2.456,3.415,6.617,5.867c1.066,5.658,2.561,13.235,3.842,19.422c2.454,11.633,4.802,11.633,4.908,19.636
	c0.213,8.004-0.32,25.184-4.801,27.213c0,0-10.993,2.025-7.044,7.79c0,0,2.882,1.386,5.229,0.319c0,0,6.936,2.989,9.604-1.709
	c2.667-4.588,3.414-24.65,5.974-32.76c0,0,1.495-3.416-0.533-6.081c-1.601-2.029-4.481-17.61-1.601-32.653
	c1.175-0.431,2.349-1.07,3.629-1.816c3.095,10.353,5.123,29.345,4.91,44.712c-0.32,18.569-1.921,30.521-1.281,33.297
	c0.64,2.772,0,6.081,3.416,12.592c3.413,6.507,10.031,2.238,10.031,2.238s2.561,1.923,5.441,0c2.776-1.812,0.642-7.896-2.774-10.775
	c-1.281-1.069-2.241-2.669-2.88-4.161c3.842,1.173,5.548-0.75,5.548-0.75s3.522,2.242,5.656-0.106
	c2.241-2.346-1.28-7.684-2.241-15.581c-1.066-7.893-4.375-24.224-3.416-32.653c0.854-8.43,0.428-36.068,1.174-51.223
	c0.64-13.444-4.162-38.736-20.915-42.576c-0.535-1.281-0.855-2.349-1.175-3.309c-2.027-7.577-0.106-18.354-0.106-18.354
	c1.173-5.656,1.708-10.353,1.708-14.407c1.279-3.733,1.921-6.509,1.921-6.509c5.228-1.814,9.39-7.257,9.39-7.257
	c10.033,10.459,23.051,2.243,17.501,1.495c-5.443-0.746-13.553-10.458-21.876-14.726c-8.217-4.268-13.338,4.695-13.338,4.695
	s-10.779-3.735-22.091,0c0,0-5.015-8.963-13.338-4.695c-8.217,4.268-16.433,13.979-21.876,14.726
	c-5.443,0.748,7.468,8.965,17.501-1.495c0,0,4.162,5.443,9.39,7.257c0,0,0.961,4.055,2.882,9.178
	C532.46,419.125,532.887,422.966,533.846,427.449L533.846,427.449z M578.24,586.771c-5.123-23.797-0.213-38.415-1.175-52.929
	c1.601,5.548,2.563,10.992,1.708,14.407c-2.774,10.136,3.735,19.313,2.134,26.782C580.055,579.193,578.667,583.462,578.24,586.771
	L578.24,586.771z"/>
</svg>
